<mxfile host="app.diagrams.net" agent="Mozilla/5.0 (Windows NT 10.0; Win64; x64; rv:131.0) Gecko/20100101 Firefox/131.0" version="24.7.16">
  <diagram name="Page-1" id="XQYFiv0CbGfUtcWvsz3B">
    <mxGraphModel dx="2474" dy="1592" grid="0" gridSize="10" guides="1" tooltips="1" connect="1" arrows="1" fold="1" page="0" pageScale="1" pageWidth="827" pageHeight="1169" math="0" shadow="0">
      <root>
        <mxCell id="0" />
        <mxCell id="1" parent="0" />
        <mxCell id="2NfV_9eSnw5SxpGi_l0n-1" value="GW: sbsb-vlsd-edm-7" style="verticalLabelPosition=bottom;sketch=0;aspect=fixed;html=1;verticalAlign=top;strokeColor=none;align=center;outlineConnect=0;shape=mxgraph.citrix.dhcp_server;" vertex="1" parent="1">
          <mxGeometry x="167" y="-55" width="76" height="90" as="geometry" />
        </mxCell>
        <mxCell id="2NfV_9eSnw5SxpGi_l0n-3" style="edgeStyle=none;curved=1;rounded=0;orthogonalLoop=1;jettySize=auto;html=1;fontSize=12;startSize=8;endSize=8;entryX=0;entryY=0.5;entryDx=0;entryDy=0;" edge="1" parent="1" source="2NfV_9eSnw5SxpGi_l0n-2" target="2NfV_9eSnw5SxpGi_l0n-8">
          <mxGeometry relative="1" as="geometry" />
        </mxCell>
        <mxCell id="2NfV_9eSnw5SxpGi_l0n-7" value="https://sbsb-vlsd-edm-7:444" style="edgeLabel;html=1;align=center;verticalAlign=middle;resizable=0;points=[];fontSize=12;" vertex="1" connectable="0" parent="2NfV_9eSnw5SxpGi_l0n-3">
          <mxGeometry x="0.3314" y="1" relative="1" as="geometry">
            <mxPoint x="-30" y="1" as="offset" />
          </mxGeometry>
        </mxCell>
        <mxCell id="2NfV_9eSnw5SxpGi_l0n-2" value="LB: dev-edm-bdu" style="verticalLabelPosition=bottom;sketch=0;aspect=fixed;html=1;verticalAlign=top;strokeColor=none;align=center;outlineConnect=0;shape=mxgraph.citrix.proxy_server;" vertex="1" parent="1">
          <mxGeometry x="-200" y="-52" width="76.5" height="90" as="geometry" />
        </mxCell>
        <mxCell id="2NfV_9eSnw5SxpGi_l0n-5" style="edgeStyle=none;curved=1;rounded=0;orthogonalLoop=1;jettySize=auto;html=1;fontSize=12;startSize=8;endSize=8;" edge="1" parent="1" source="2NfV_9eSnw5SxpGi_l0n-4" target="2NfV_9eSnw5SxpGi_l0n-2">
          <mxGeometry relative="1" as="geometry" />
        </mxCell>
        <mxCell id="2NfV_9eSnw5SxpGi_l0n-6" value="https://dev-edm-bdu:444" style="edgeLabel;html=1;align=center;verticalAlign=middle;resizable=0;points=[];fontSize=12;" vertex="1" connectable="0" parent="2NfV_9eSnw5SxpGi_l0n-5">
          <mxGeometry x="-0.2452" y="3" relative="1" as="geometry">
            <mxPoint x="-1" as="offset" />
          </mxGeometry>
        </mxCell>
        <mxCell id="2NfV_9eSnw5SxpGi_l0n-4" value="Wildfly" style="verticalLabelPosition=bottom;sketch=0;aspect=fixed;html=1;verticalAlign=top;strokeColor=none;align=center;outlineConnect=0;shape=mxgraph.citrix.dhcp_server;" vertex="1" parent="1">
          <mxGeometry x="19" y="-256" width="76" height="90" as="geometry" />
        </mxCell>
        <mxCell id="2NfV_9eSnw5SxpGi_l0n-8" value="Proxy" style="rounded=1;whiteSpace=wrap;html=1;strokeColor=#00AA9B;strokeWidth=3;arcSize=19;fontFamily=Poppins;fontSource=https%3A%2F%2Ffonts.googleapis.com%2Fcss%3Ffamily%3DPoppins;fontSize=16;fontColor=#002058;fontStyle=0;labelBackgroundColor=none;labelBorderColor=none;" vertex="1" parent="1">
          <mxGeometry x="73" y="65" width="280" height="60" as="geometry" />
        </mxCell>
        <mxCell id="2NfV_9eSnw5SxpGi_l0n-9" value="Gateway_services" style="rounded=1;whiteSpace=wrap;html=1;strokeColor=#00AA9B;strokeWidth=3;arcSize=19;fontFamily=Poppins;fontSource=https%3A%2F%2Ffonts.googleapis.com%2Fcss%3Ffamily%3DPoppins;fontSize=16;fontColor=#002058;fontStyle=0;labelBackgroundColor=none;labelBorderColor=none;" vertex="1" parent="1">
          <mxGeometry x="75" y="127" width="280" height="69" as="geometry" />
        </mxCell>
        <mxCell id="2NfV_9eSnw5SxpGi_l0n-11" style="edgeStyle=none;curved=1;rounded=0;orthogonalLoop=1;jettySize=auto;html=1;entryX=1.004;entryY=0.867;entryDx=0;entryDy=0;entryPerimeter=0;fontSize=12;startSize=8;endSize=8;exitX=1;exitY=0.5;exitDx=0;exitDy=0;" edge="1" parent="1" source="2NfV_9eSnw5SxpGi_l0n-9" target="2NfV_9eSnw5SxpGi_l0n-8">
          <mxGeometry relative="1" as="geometry">
            <Array as="points">
              <mxPoint x="402" y="158" />
            </Array>
          </mxGeometry>
        </mxCell>
        <mxCell id="2NfV_9eSnw5SxpGi_l0n-12" value="http://host.docker.internal:446" style="edgeLabel;html=1;align=center;verticalAlign=middle;resizable=0;points=[];fontSize=12;" vertex="1" connectable="0" parent="2NfV_9eSnw5SxpGi_l0n-11">
          <mxGeometry x="0.2792" y="8" relative="1" as="geometry">
            <mxPoint x="69" y="-5" as="offset" />
          </mxGeometry>
        </mxCell>
      </root>
    </mxGraphModel>
  </diagram>
</mxfile>
